<svg xmlns="http://www.w3.org/2000/svg" viewBox="0 0 900 650"><defs><linearGradient id="g" x1="0" y1="0" x2="0" y2="1"><stop stop-color="#dff5ff"/><stop offset="1" stop-color="#fff"/></linearGradient></defs><rect width="900" height="650" rx="35" fill="url(#g)"/><g font-family="Arial,sans-serif" text-anchor="middle"><text x="450" y="85" font-size="40" font-weight="800" fill="#2d7898">DON'T SAY NO... 🥺</text></g><ellipse cx="450" cy="570" rx="235" ry="35" fill="#b8ddea"/><ellipse cx="450" cy="430" rx="145" ry="135" fill="#fffaf2"/><circle cx="450" cy="300" r="125" fill="#fffaf2"/><ellipse cx="345" cy="315" rx="50" ry="88" fill="#d99a68" transform="rotate(20 345 315)"/><ellipse cx="555" cy="315" rx="50" ry="88" fill="#d99a68" transform="rotate(-20 555 315)"/><circle cx="410" cy="295" r="11" fill="#3b4c59"/><circle cx="490" cy="295" r="11" fill="#3b4c59"/><ellipse cx="450" cy="335" rx="23" ry="17" fill="#513b35"/><path d="M425 365 Q450 390 475 365" fill="none" stroke="#513b35" stroke-width="8" stroke-linecap="round"/><ellipse cx="375" cy="450" rx="40" ry="70" fill="#fffaf2"/><ellipse cx="525" cy="450" rx="40" ry="70" fill="#fffaf2"/><ellipse cx="390" cy="560" rx="55" ry="22" fill="#fffaf2"/><ellipse cx="510" cy="560" rx="55" ry="22" fill="#fffaf2"/><text x="450" y="210" font-size="46" font-weight="900" fill="#ff8b8b">DON'T SAY NO!</text><text x="450" y="255" font-size="32" fill="#52728a">It's your birthday 🥺</text><text x="450" y="620" font-family="Arial,sans-serif" font-size="28" font-weight="700" fill="#52728a">Please accept the birthday happiness</text><style>.f{animation:f 2s ease-in-out infinite}@keyframes f{0%,100%{transform:translateY(0)}50%{transform:translateY(-12px)}}</style></svg>